<?xml version="1.0" encoding="UTF-8"?>
<svg width="628px" height="597px" viewBox="0 0 628 597" version="1.1" xmlns="http://www.w3.org/2000/svg" xmlns:xlink="http://www.w3.org/1999/xlink">
    <title>lara-mark</title>
    <g id="Page-1" stroke="none" stroke-width="1" fill="none" fill-rule="evenodd" opacity="0.0708705357">
        <g id="lara-mark" transform="translate(363.632812, 294.132812) rotate(-23.000000) translate(-363.632812, -294.132812) translate(73.632812, -4.367188)" fill="#FF2D20">
            <path d="M579.672937,135.057039 C579.888,135.85294 580,136.673561 580,137.497996 L580,265.642439 C580,268.990257 578.208817,272.08228 575.304306,273.74782 L467.73553,335.671064 L467.73553,458.408025 C467.73553,461.748283 465.960044,464.831598 463.063197,466.513407 L238.522576,595.755696 C238.00862,596.047676 237.44794,596.234544 236.88726,596.433091 C236.677005,596.503166 236.478431,596.631637 236.256495,596.690034 C234.686871,597.103322 233.036978,597.103322 231.467354,596.690034 C231.210376,596.619958 230.976759,596.479808 230.731462,596.386374 C230.217505,596.199506 229.680187,596.035997 229.189592,595.755696 L4.6956942,466.513407 C1.79295174,464.846091 0,461.755193 0,458.408025 L0,73.9746989 C0,73.1337948 0.116808314,72.3162491 0.327063278,71.5220619 C0.397148266,71.2534398 0.560679905,71.0081761 0.654126556,70.7395539 C0.829339026,70.2490265 0.992870665,69.7468199 1.24984895,69.2913302 C1.42506143,68.9876704 1.68203971,68.7424067 1.89229468,68.4621053 C2.1609538,68.0883701 2.40625126,67.7029558 2.72163371,67.3759375 C2.99029283,67.1073154 3.34071777,66.9087686 3.64441938,66.6751841 C3.98316349,66.3948827 4.28686511,66.0912229 4.67233254,65.8693176 L4.68401337,65.8693176 L116.936803,1.24817306 C119.829337,-0.416057686 123.388933,-0.416057686 126.281468,1.24817306 L238.534257,65.8693176 L238.557619,65.8693176 C238.931405,66.1029021 239.246788,66.3948827 239.585532,66.6635049 C239.889233,66.8970893 240.227978,67.1073154 240.496637,67.3642583 C240.8237,67.7029558 241.057317,68.0883701 241.337657,68.4621053 C241.536231,68.7424067 241.80489,68.9876704 241.968421,69.2913302 C242.237081,69.7584991 242.388931,70.2490265 242.575825,70.7395539 C242.669271,71.0081761 242.832803,71.2534398 242.902888,71.5337411 C243.117951,72.329642 243.227906,73.1502637 243.229951,73.9746989 L243.229951,314.087858 L336.770049,260.234958 L336.770049,137.486317 C336.770049,136.668772 336.886857,135.839547 337.097112,135.057039 C337.178878,134.776737 337.330729,134.531474 337.424175,134.262851 C337.611069,133.772324 337.7746,133.270117 338.031579,132.814628 C338.206791,132.510968 338.463769,132.265704 338.662343,131.985403 C338.942683,131.611668 339.1763,131.226253 339.503363,130.899235 C339.772022,130.630613 340.110767,130.432066 340.414468,130.198482 C340.764893,129.91818 341.068595,129.61452 341.442381,129.392615 L341.454062,129.392615 L453.718532,64.7714706 C456.610426,63.104842 460.171304,63.104842 463.063197,64.7714706 L575.315987,129.392615 C575.713135,129.6262 576.016837,129.91818 576.367261,130.186802 C576.659282,130.420387 576.998026,130.630613 577.266685,130.887556 C577.593749,131.226253 577.827365,131.611668 578.107705,131.985403 C578.31796,132.265704 578.574939,132.510968 578.73847,132.814628 C579.007129,133.270117 579.15898,133.772324 579.345873,134.262851 C579.451001,134.531474 579.602852,134.776737 579.672937,135.057039 Z M561.287308,260.234958 L561.287308,153.673721 L522.004672,176.284698 L467.73553,207.526622 L467.73553,314.087858 L561.298989,260.234958 L561.287308,260.234958 Z M449.034519,453.000545 L449.034519,346.369233 L395.65312,376.852006 L243.21827,463.838864 L243.21827,571.47459 L449.034519,453.000545 Z M18.7126918,90.1504237 L18.7126918,453.000545 L224.505579,571.46291 L224.505579,463.850544 L116.995207,403.013467 L116.960164,402.990109 L116.913441,402.966751 C116.551335,402.756525 116.247634,402.452865 115.90889,402.195922 C115.616869,401.962337 115.278125,401.77547 115.021146,401.518527 L114.997785,401.483489 C114.694083,401.191509 114.483828,400.829453 114.22685,400.502434 C113.993233,400.187095 113.712893,399.918473 113.526,399.591455 L113.514319,399.556417 C113.304064,399.206041 113.175575,398.785588 113.023724,398.388495 C112.871873,398.038118 112.673299,397.7111 112.579853,397.337365 L112.579853,397.325686 C112.463044,396.881875 112.439683,396.414706 112.392959,395.959216 C112.346236,395.60884 112.252789,395.258463 112.252789,394.908086 L112.252789,394.884728 L112.252789,144.003324 L57.9953277,112.749721 L18.7126918,90.1621029 L18.7126918,90.1504237 Z M121.620816,20.145157 L28.0923994,73.9746989 L121.597454,127.804241 L215.11419,73.9630197 L121.597454,20.145157 L121.620816,20.145157 Z M170.259798,356.086347 L224.517259,324.856103 L224.517259,90.1504237 L185.234624,112.761401 L130.965481,144.003324 L130.965481,378.709003 L170.259798,356.086347 Z M458.390865,83.6684545 L364.874129,137.497996 L458.390865,191.327538 L551.89592,137.486317 L458.390865,83.6684545 Z M449.034519,207.526622 L394.765376,176.284698 L355.482741,153.673721 L355.482741,260.234958 L409.740202,291.465202 L449.034519,314.087858 L449.034519,207.526622 Z M233.850244,447.66314 L371.018246,369.365624 L439.584726,330.240225 L346.138075,276.44572 L238.545938,338.380644 L140.485359,394.826332 L233.850244,447.66314 Z" id="Shape"></path>
        </g>
    </g>
</svg>